<svg width="162" height="51" viewBox="0 0 162 51" fill="none" xmlns="http://www.w3.org/2000/svg">
<path fill-rule="evenodd" clip-rule="evenodd" d="M118.687 36.9025C119.442 36.8249 120.172 36.6938 120.879 36.5119H120.881V33.7845C120.138 33.9786 119.427 34.1218 118.745 34.2116C118.062 34.3013 117.435 34.3474 116.86 34.3474C115.519 34.3474 114.503 34.0223 113.816 33.3744C113.126 32.7266 112.784 31.7487 112.784 30.4384V21.1644H120.879V18.5099H112.784V12.6718L109.661 13.4895V18.5074H104.617V21.1644H109.661V30.6932C109.661 32.8382 110.216 34.4299 111.33 35.466C112.441 36.5021 114.13 37.0214 116.39 37.0214C117.169 37.0214 117.933 36.9826 118.687 36.9025ZM162 26.6749C162 27.1238 161.993 27.4999 161.981 27.8008C161.969 28.1041 161.952 28.3905 161.928 28.6549H149.273C149.273 30.5209 149.788 31.9549 150.818 32.9546C151.848 33.9544 153.33 34.4542 155.27 34.4542C155.797 34.4542 156.324 34.4324 156.848 34.3911C157.375 34.3499 157.883 34.2916 158.374 34.2188C158.865 34.146 159.334 34.0635 159.782 33.9738C160.23 33.8816 160.647 33.7821 161.03 33.6729V36.2741C160.18 36.5167 159.219 36.7132 158.149 36.8661C157.078 37.0166 155.967 37.0942 154.82 37.0942C153.275 37.0942 151.948 36.8807 150.835 36.4585C149.721 36.0338 148.809 35.4199 148.097 34.6119C147.386 33.8063 146.859 32.8188 146.519 31.6468C146.179 30.4772 146.006 29.1524 146.006 27.6722C146.006 26.3886 146.188 25.1705 146.552 24.0252C146.919 22.8799 147.451 21.873 148.15 21.0067C148.849 20.1405 149.709 19.4513 150.725 18.9418C151.742 18.4322 152.897 18.1774 154.188 18.1774C155.445 18.1774 156.556 18.3788 157.526 18.7768C158.496 19.1771 159.313 19.7449 159.976 20.4777C160.64 21.2105 161.143 22.1035 161.485 23.1517C161.83 24.2048 162 25.3768 162 26.6749ZM158.752 26.2188C158.788 25.4059 158.709 24.6634 158.52 23.9913C158.328 23.3191 158.032 22.7392 157.632 22.2539C157.232 21.7686 156.731 21.3901 156.132 21.1159C155.534 20.8441 154.839 20.7082 154.051 20.7082C153.369 20.7082 152.746 20.8417 152.185 21.1086C151.623 21.3755 151.139 21.7516 150.732 22.2369C150.325 22.7222 149.996 23.3046 149.745 23.9816C149.494 24.661 149.338 25.4059 149.278 26.2188H158.752ZM97.6426 36.7957C98.4952 36.6429 99.3311 36.4099 100.145 36.0945H100.141V33.1488C99.3981 33.537 98.6294 33.8282 97.8342 34.0223C97.0391 34.2164 96.2176 34.3135 95.3674 34.3135C93.4874 34.3135 92.0193 33.7651 90.9607 32.6683C89.9021 31.5716 89.3728 29.9191 89.3728 27.7135C89.3728 26.658 89.5285 25.7141 89.8399 24.8769C90.1512 24.0398 90.5751 23.3313 91.114 22.7489C91.6528 22.1666 92.2779 21.7201 92.9892 21.4119C93.7005 21.1038 94.4573 20.9485 95.2597 20.9485C96.1194 20.9485 96.9553 21.0431 97.7624 21.2299C98.5695 21.4192 99.3622 21.7177 100.141 22.1302V19.1116C99.3981 18.8083 98.6222 18.5899 97.8079 18.4565C96.9936 18.3206 96.1218 18.2551 95.1878 18.2551C93.849 18.2551 92.6228 18.4832 91.5091 18.9369C90.3979 19.3907 89.4399 20.0361 88.6376 20.8732C87.8377 21.7104 87.215 22.7149 86.7719 23.8918C86.3289 25.0686 86.1085 26.3789 86.1085 27.8202C86.1085 30.8291 86.8773 33.1124 88.4149 34.6774C89.9524 36.2425 92.1462 37.0238 94.9938 37.0238C95.9039 37.0238 96.7852 36.9462 97.6426 36.7957ZM138.254 36.7666H141.054H141.056V18.5074H137.933V30.6204C137.358 31.3605 136.841 31.9719 136.381 32.4572C135.919 32.9425 135.488 33.3283 135.088 33.6122C134.685 33.8961 134.302 34.0975 133.938 34.2116C133.572 34.3256 133.198 34.3838 132.815 34.3838C130.734 34.3838 129.692 32.9838 129.692 30.1836V18.5074H126.569V30.4384C126.569 32.6683 127.041 34.3353 127.987 35.4394C128.933 36.5434 130.331 37.0942 132.187 37.0942C132.726 37.0942 133.239 37.0408 133.723 36.9389C134.206 36.837 134.688 36.6574 135.167 36.4027C135.646 36.1479 136.127 35.8106 136.611 35.3932C137.095 34.9759 137.607 34.4518 138.146 33.8209L138.254 36.7666Z" fill="white"/>
<path d="M60.176 40.8412C59.8934 40.8412 59.6084 40.7927 59.3282 40.6908C52.5912 38.2376 48.0647 31.7177 48.0647 24.4626C48.0647 17.1395 52.651 10.5977 59.4767 8.18338C60.7819 7.71993 62.2117 8.42118 62.6667 9.74361C63.1218 11.066 62.432 12.5146 61.1268 12.9757C56.3105 14.679 53.075 19.2942 53.075 24.4601C53.075 29.5776 56.2674 34.1806 61.0214 35.9107C62.3243 36.3838 62.9996 37.8373 62.5326 39.1573C62.1662 40.1958 61.2034 40.8412 60.176 40.8412Z" fill="white"/>
<path d="M69.8588 40.8844C68.8218 40.8844 67.8543 40.2292 67.4926 39.181C67.0376 37.8561 67.7273 36.4099 69.0326 35.9489C73.8488 34.248 77.0844 29.6304 77.0844 24.4644C77.0844 19.2475 73.8081 14.6178 68.9296 12.9435C67.6195 12.4946 66.9154 11.0533 67.3609 9.72604C67.804 8.39876 69.2266 7.68538 70.5366 8.13428C77.4508 10.5049 82.0947 17.0685 82.0947 24.462C82.0947 31.7851 77.5083 38.3269 70.6827 40.7412C70.4121 40.8382 70.1342 40.8844 69.8588 40.8844Z" fill="white"/>
</svg>
